<?xml version="1.0" encoding="utf-8"?>
<!-- Generator: Adobe Illustrator 26.0.1, SVG Export Plug-In . SVG Version: 6.00 Build 0)  -->
<svg version="1.1" id="Layer_1" xmlns="http://www.w3.org/2000/svg" xmlns:xlink="http://www.w3.org/1999/xlink" x="0px" y="0px"
	 viewBox="0 0 192 192" style="enable-background:new 0 0 192 192;" xml:space="preserve">
<style type="text/css">
	.st0{fill:#FFFFFF;}
	.st1{fill:#3F3F3F;stroke:#FFFFFF;stroke-width:0.5;stroke-miterlimit:10;}
	.st2{fill:#FFFFFF;stroke:#FFFFFF;stroke-width:0.5;stroke-miterlimit:10;}
</style>
<rect class="st0" width="192" height="192"/>
<path class="st1" d="M192,15v2c-6.1,0-11,4.9-11,11c0,1.9,1.2,4.8,2.5,6.1l2.4,2.4c1.9,2,2.4,5,1.2,7.6l-0.4,0.8
	c-1.4,2.4-3.9,4-6.7,4.1h-35v35c0.1,2,1.3,3.9,3,4.9l0.8,0.4c1.6,0.8,4,0.4,5.2-0.8l2.4-2.4c2.1-1.9,4.7-3,7.5-3.1
	c7.2,0,13,5.8,13,13s-5.8,13-13,13c-2.8-0.1-5.5-1.2-7.5-3.1l-2.4-2.4c-1.4-1.3-3.5-1.6-5.2-0.8l-0.8,0.4c-1.8,1-2.9,2.8-3,4.9v35
	h35c2.8,0.1,5.3,1.7,6.7,4.1l0.4,0.8c1.2,2.5,0.7,5.5-1.2,7.6l-2.4,2.4c-1.5,1.7-2.4,3.8-2.5,6.1c0,6.1,4.9,11,11,11v2
	c-7.2,0-13-5.8-13-13l0,0c0.1-2.8,1.2-5.5,3.1-7.5l2.4-2.4c1.3-1.4,1.6-3.5,0.9-5.2l-0.4-0.8c-1-1.8-2.8-2.9-4.9-3h-35v35
	c-0.1,2.8-1.7,5.3-4.1,6.7l-0.8,0.4c-2.5,1.2-5.5,0.7-7.6-1.2l-2.4-2.4c-1.7-1.5-3.8-2.4-6.1-2.5c-6.1,0-11,4.9-11,11h-2
	c0-7.2,5.8-13,13-13l0,0c2.5,0,5.8,1.4,7.5,3.1l2.4,2.4c1.4,1.3,3.5,1.6,5.2,0.9l0.8-0.4c1.8-1,2.9-2.8,3-4.9v-35h-35
	c-2.8-0.1-5.3-1.7-6.7-4.1l-0.4-0.8c-1.2-2.5-0.7-5.5,1.2-7.6l2.4-2.4c1.5-1.7,2.4-3.8,2.5-6.1c0-6.1-4.9-11-11-11s-11,4.9-11,11
	l0,0c0,1.9,1.2,4.8,2.5,6.1l2.4,2.4c1.9,2,2.4,5,1.2,7.6l-0.4,0.8c-1.4,2.4-3.9,4-6.7,4.1H49v35c0.1,2,1.3,3.9,3,4.9l0.8,0.4
	c1.6,0.8,4,0.4,5.2-0.9l2.4-2.4c2.1-1.9,4.7-3,7.5-3.1c7.2,0,13,5.8,13,13l0,0h-2c0-6.1-4.9-11-11-11c-1.9,0-4.8,1.2-6.1,2.5
	l-2.4,2.4c-2,1.9-5,2.4-7.6,1.2l-0.8-0.4c-2.4-1.4-4-3.9-4.1-6.7v-35H12c-2,0.1-3.9,1.3-4.9,3l-0.4,0.8c-0.8,1.6-0.4,4,0.8,5.2
	l2.4,2.4c1.9,2.1,3,4.7,3.1,7.5c0,7.2-5.8,13-13,13l0,0v-2c6.1,0,11-4.9,11-11c0-1.9-1.2-4.8-2.5-6.1l-2.4-2.4c-1.9-2-2.4-5-1.2-7.6
	l0.4-0.8c1.4-2.4,3.9-4,6.7-4.1h35v-35c-0.1-2-1.3-3.9-3-4.9l-0.8-0.4c-1.6-0.8-4-0.4-5.2,0.8l-2.4,2.4c-2.1,1.9-4.7,3-7.5,3.1
	c-7.2,0-13-5.8-13-13s5.8-13,13-13c2.5,0,5.8,1.4,7.5,3.1l2.4,2.4c1.4,1.3,3.5,1.6,5.2,0.8l0.8-0.4c1.8-1,2.9-2.8,3-4.9V49H12
	c-2.8-0.1-5.3-1.7-6.7-4.1L4.9,44c-1.2-2.5-0.7-5.5,1.2-7.6L8.5,34c1.5-1.7,2.4-3.8,2.5-6.1c0-6.1-4.9-11-11-11v-2
	c7.2,0,13,5.8,13,13c0,2.5-1.4,5.8-3.1,7.5l-2.4,2.4c-1.3,1.4-1.6,3.5-0.8,5.2l0.4,1c1,1.8,2.8,2.9,4.9,3h35V12
	c0.1-2.8,1.7-5.3,4.1-6.7L52,4.9c2.5-1.2,5.5-0.7,7.6,1.2L62,8.5c1.7,1.5,3.8,2.4,6.1,2.5c6.1,0,11-4.9,11-11h2c0,7.2-5.8,13-13,13
	c-2.8-0.1-5.5-1.2-7.5-3.1l-2.4-2.4c-1.4-1.3-3.5-1.6-5.2-0.8l-1,0.4c-1.8,1-2.9,2.8-3,4.9v35h35c2.8,0.1,5.3,1.7,6.7,4.1l0.4,0.8
	c1.2,2.5,0.7,5.5-1.2,7.6l-2.4,2.4C86,63.6,85.1,65.7,85,68c0,6.1,4.9,11,11,11s11-4.9,11-11c0-1.9-1.2-4.8-2.5-6.1l-2.4-2.4
	c-1.9-2-2.4-5-1.2-7.6l0.4-0.8c1.4-2.4,3.9-4,6.7-4.1h35V12c-0.1-2-1.3-3.9-3-4.9l-0.8-0.4c-1.6-0.8-4-0.4-5.2,0.8l-2.4,2.4
	c-2.1,1.9-4.7,3-7.5,3.1c-7.2,0-13-5.8-13-13h2c0,6.1,4.9,11,11,11c1.9,0,4.8-1.2,6.1-2.5l2.4-2.4c2-1.9,5-2.4,7.6-1.2l0.8,0.4
	c2.4,1.4,4,3.9,4.1,6.7v35h35c2-0.1,3.9-1.3,4.9-3l0.4-0.8c0.8-1.6,0.4-4-0.9-5.2l-2.4-2.4c-1.9-2.1-3-4.7-3.1-7.5
	C179,20.8,184.8,15,192,15z"/>
<path class="st2" d="M84,143c2-0.1,3.9-1.3,4.9-3l0.4-0.8c0.8-1.6,0.4-4-0.8-5.2l-2.4-2.4c-1.9-2.1-3-4.7-3.1-7.5
	c0-7.2,5.8-13,13-13s13,5.8,13,13c0,2.5-1.4,5.8-3.1,7.5l-2.4,2.4c-1.3,1.4-1.6,3.5-0.8,5.2l0.4,0.8c1,1.8,2.8,2.9,4.9,3h35v-35
	c0.1-2.8,1.7-5.3,4.1-6.7l0.8-0.4c2.5-1.2,5.5-0.7,7.6,1.2l2.4,2.4c1.7,1.5,3.8,2.4,6.1,2.5c6.1,0,11-4.9,11-11s-4.9-11-11-11
	c-1.9,0-4.8,1.2-6.1,2.5l-2.4,2.4c-2,1.9-5,2.4-7.6,1.2l-0.8-0.4c-2.4-1.4-4-3.9-4.1-6.7V49h-35c-2,0.1-3.9,1.3-4.9,3l-0.4,0.8
	c-0.8,1.6-0.4,4,0.8,5.2l2.4,2.4c1.9,2.1,3,4.7,3.1,7.5c0,7.2-5.8,13-13,13s-13-5.8-13-13c0.1-2.8,1.2-5.5,3.1-7.5l2.4-2.4
	c1.3-1.4,1.6-3.5,0.8-5.2L88.9,52c-1-1.8-2.8-2.9-4.9-3H49v35c-0.1,2.8-1.7,5.3-4.1,6.7L44,91.1c-2.5,1.2-5.5,0.7-7.6-1.2L34,87.5
	c-1.6-1.5-3.7-2.4-6-2.5c-6.1,0-11,4.9-11,11s4.9,11,11,11c1.9,0,4.8-1.2,6.1-2.5l2.4-2.4c2-1.9,5-2.4,7.6-1.2l0.8,0.4
	c2.4,1.4,4,3.9,4.1,6.7v35C49,143,84,143,84,143z"/>
</svg>
