<?xml version="1.0" encoding="utf-8"?>
<!-- Generator: Adobe Illustrator 26.0.1, SVG Export Plug-In . SVG Version: 6.00 Build 0)  -->
<svg version="1.1" id="Layer_1" xmlns="http://www.w3.org/2000/svg" xmlns:xlink="http://www.w3.org/1999/xlink" x="0px" y="0px"
	 viewBox="0 0 192 192" style="enable-background:new 0 0 192 192;" xml:space="preserve">
<path d="M144.8,144.9c0,0.6,0,1.1,0,1.5c0,11.1,0,22.2,0,33.2c0,4-2.8,7.3-6.8,7.9c-2,0.3-3.7-0.4-5.2-1.7c-0.6-0.6-1.2-1.1-1.8-1.8
	c-3-3.1-6.5-4-10.5-2.6c-4.2,1.4-6.7,4.4-7.5,8.7c-0.1,0.4-0.1,0.8-0.2,1.2c0,0.1-0.1,0.2-0.1,0.4c-0.4,0-0.8,0-1.3,0
	c0-2.5,0.8-4.8,2.2-6.9c3.1-4.6,10-7.6,16-3.9c1.3,0.8,2.5,2,3.6,3.1c1.7,1.7,3.7,2.4,6,1.6c2.5-0.9,4-2.8,4-5.4
	c0.1-11.6,0-23.3,0-34.9c0-0.1-0.1-0.2-0.1-0.5c-0.5,0-0.9,0-1.4,0c-11.1,0-22.2,0-33.4,0c-4.4,0-8-3.6-7.8-7.8
	c0.1-1.8,0.8-3.2,2-4.5c1.1-1.2,2.4-2.3,3.2-3.7c3.5-5.6,0.3-13.3-6.2-15.4c-7.3-2.4-15,3-14.8,10.7c0,2.4,1,4.6,2.7,6.4
	c0.5,0.6,1.1,1.2,1.7,1.7c2,1.9,2.9,4.1,2.1,6.8c-0.8,2.9-2.7,4.7-5.6,5.6c-0.8,0.2-1.6,0.3-2.4,0.3c-11,0-22,0-33,0
	c-0.4,0-0.9,0-1.5,0c0,0.4,0,0.8,0,1.2c0,11.2,0,22.5,0,33.7c0,3.9,3.5,6.9,7,6.1c1-0.2,2-0.9,2.8-1.7c1.8-1.7,3.5-3.5,5.9-4.3
	c6.7-2.3,14.5,2.3,15.8,9.5c0.1,0.7,0.2,1.4,0.3,2.3c-0.5,0-0.9,0.1-1.4,0.1c-0.2-1-0.3-2-0.6-3c-1.8-6.3-9.4-10.3-15.5-6.6
	C62,183,61,184,60,185c-2.2,2.3-4.7,3.2-7.8,2.1c-3.2-1.2-5.1-4.1-5.1-7.4c0-11.1,0-22.2,0-33.2c0-0.5,0-0.9,0-1.5
	c-0.4,0-0.7-0.1-1-0.1c-11.2,0-22.3,0-33.5,0c-2.8,0-4.9,1.2-6.1,3.8c-1,2-0.5,4.2,1,5.9c1.3,1.4,2.8,2.7,3.7,4.4
	c3.9,6.7-0.4,15.7-8.3,17.5c-0.8,0.2-1.7,0.3-2.7,0.4c0-0.6,0-1,0-1.4c1.1-0.2,2.1-0.4,3.2-0.7c6.1-1.9,10.2-9.4,6.2-15.6
	C9,158,8,157,7,156.1c-2.3-2.2-3.2-4.7-2-7.7c1.3-3.3,4-5.2,7.5-5.2c11,0,22.1,0,33.1,0c0.5,0,1,0,1.6,0c0-0.4,0.1-0.8,0.1-1.2
	c0-11.2,0-22.5,0-33.7c0-4-3.7-7.1-7.4-6.1c-0.8,0.2-1.5,0.7-2.1,1.2c-0.9,0.7-1.6,1.6-2.4,2.3c-6.5,5.7-16.7,2.5-19.4-6
	c-2.5-8,3.4-16.3,11.8-16.5c3-0.1,5.6,1.1,7.8,3.1c0.6,0.6,1.2,1.1,1.8,1.8c3.3,3.8,8.8,1.1,9.7-2.7c0.1-0.5,0.2-1.1,0.2-1.7
	c0-11.3,0-22.6,0-34c0-0.3,0-0.6-0.1-1.1c-0.5,0-1,0-1.5,0c-11,0-22.1,0-33.1,0c-4.6,0-8.2-3.5-8.1-7.9c0-1.7,0.7-3.1,1.8-4.3
	c0.5-0.6,1.1-1.1,1.6-1.6c3.1-3,4.1-6.6,2.7-10.7c-1.5-4.2-4.6-6.7-9-7.4c-0.4-0.1-0.8-0.1-1.3-0.2c0-0.4,0-0.9,0-1.5
	c1.2,0.2,2.3,0.3,3.5,0.7C12,18.2,16.4,29,8.9,36.1c-1,0.9-2.1,2-2.5,3.3C5,42.9,8,47.2,11.8,47.2c11.6,0.1,23.3,0,34.9,0
	c0.1,0,0.2-0.1,0.5-0.1c0-0.4,0-0.9,0-1.4c0-11.1,0-22.2,0-33.2c0-4.6,3.6-8.1,8-8c1.6,0.1,3,0.7,4.2,1.8c0.5,0.5,1,1,1.5,1.5
	c2.8,2.9,6.1,4.1,10.1,3c4.1-1.2,6.8-3.9,7.9-8.1c0.2-0.8,0.3-1.6,0.4-2.5c0.5,0,0.9,0,1.3,0c0.3,4.7-3.3,9.9-8.3,11.7
	c-4.5,1.6-8.6,0.7-12.1-2.6c-0.5-0.5-1-1-1.5-1.5c-1.4-1.5-3.1-2.2-5.2-1.7c-2.4,0.6-4.1,2-4.7,4.4c-0.1,0.5-0.2,1-0.2,1.5
	c0,11.4,0,22.7,0,34.1c0,0.3,0,0.6,0.1,1c0.5,0,0.9,0,1.4,0c11,0,22.1,0,33.1,0c3.3,0,5.7,1.4,7.2,4.3c1.5,2.8,1.1,5.6-1,8
	c-0.5,0.5-0.9,1-1.4,1.4c-5.1,4.6-4,11.6,0.3,15.4c3.6,3.2,7.8,3.8,12.2,1.9c4.3-1.9,6.5-5.5,6.6-10.2c0-2.4-0.9-4.6-2.6-6.4
	c-0.6-0.6-1.2-1.2-1.8-1.8c-2.1-2.1-2.9-4.5-1.9-7.3c1.1-3.1,3.4-4.9,6.7-5.3c1.2-0.1,2.5-0.1,3.7-0.1c10.1,0,20.2,0,30.4,0
	c0.5,0,0.9,0,1.5,0c0-0.5,0.1-0.8,0.1-1.2c0-11.2,0-22.5,0-33.7c0-4-3.6-7.1-7.3-6.1c-0.8,0.2-1.5,0.7-2.2,1.2
	c-0.9,0.7-1.6,1.6-2.5,2.4c-7,6.2-17.2,1.7-19.4-6.4c-0.3-1-0.4-2-0.6-3.2c0.6,0,1,0,1.5-0.1c0.1,0.6,0.2,1.2,0.3,1.8
	c1.2,7,9.3,11.8,15.9,7.7c1.2-0.7,2.2-1.8,3.2-2.8c2.4-2.4,5-3.1,7.7-1.9c3.1,1.3,4.9,3.7,5,7.1c0.1,7,0,13.9,0,20.9
	c0,4.4,0,8.9,0,13.3c0,0.2,0,0.5,0.1,0.8c0.4,0,0.7,0.1,1.1,0.1c11.3,0,22.6,0,33.8,0c4.1,0,7.2-4,5.9-7.6c-0.2-0.7-0.7-1.3-1.2-1.9
	c-0.7-0.8-1.6-1.6-2.3-2.4c-5.9-6.7-2.2-17.6,6.8-19.7c0.8-0.2,1.7-0.3,2.7-0.4c0,0.6,0,1,0,1.4c-1,0.2-2.1,0.4-3.1,0.6
	c-6.2,1.8-10.3,9.4-6.3,15.7c0.7,1.1,1.6,2,2.5,2.9c2.3,2.2,3.3,4.7,2.1,7.8c-1.3,3.3-4,5.1-7.5,5.2c-11,0-22.1,0-33.1,0
	c-0.5,0-1,0-1.5,0c0,0.4-0.1,0.8-0.1,1.1c0,11.3,0,22.6,0,33.8c0,4,3.7,7,7.4,6.1c0.8-0.2,1.5-0.7,2.1-1.2c0.9-0.7,1.6-1.6,2.4-2.3
	c5.7-5,14.5-3.3,18.3,3.6c2.4,4.4,2.3,8.8-0.4,13c-2.6,4.1-6.4,6.1-11.2,5.9c-2.7-0.1-5-1.2-7-3.1c-0.6-0.6-1.2-1.1-1.7-1.7
	c-3.4-3.9-8.7-1.1-9.7,2.3c-0.2,0.6-0.3,1.3-0.3,2c0,11.3,0,22.6,0,34c0,0.3,0,0.6,0.1,1.1c0.5,0,1,0,1.5,0c11,0,22,0,33,0
	c3.3,0,5.8,1.4,7.3,4.3c1.5,2.8,1.1,5.6-1.1,8c-0.5,0.5-1,1-1.5,1.5c-5.3,4.9-3.6,12.5,1.3,16c1.9,1.4,4,2,6.3,2.2
	c0,0.5,0,0.9,0,1.6c-1.2-0.2-2.4-0.3-3.5-0.7c-7.7-2.3-11.3-11.3-7.2-17.8c0.9-1.3,2.1-2.4,3.2-3.6c1.6-1.6,2.2-3.5,1.5-5.7
	c-0.8-2.3-2.4-3.7-4.8-4.1c-0.5-0.1-1-0.1-1.6-0.1c-11.1,0-22.2,0-33.4,0C145.7,144.8,145.3,144.9,144.8,144.9z M48.8,143.2
	c1.7,0,3.4,0,5,0c10,0,19.9,0,29.9,0c0.8,0,1.6-0.2,2.3-0.4c3.9-1.4,5.7-6.6,2.1-9.7c-0.6-0.5-1-1-1.5-1.5c-1.9-2-3-4.3-3.2-7.1
	c-0.5-8.7,8.3-15.4,16.7-12.5c6,2,9.8,8.4,8.4,14.2c-0.7,2.7-2.3,4.9-4.3,6.8c-0.8,0.8-1.6,1.8-1.9,2.8c-1.1,3.6,2,7.4,6,7.4
	c11.3,0,22.6,0,34,0c0.3,0,0.6-0.1,1-0.1c0-0.5,0-1,0-1.5c0-10.2,0-20.4,0-30.6c0-1.2-0.1-2.3,0.1-3.5c0.4-3.3,2.2-5.5,5.3-6.7
	c2.8-1,5.3-0.2,7.3,1.9c0.6,0.6,1.2,1.3,1.9,1.9c2,1.8,4.4,2.8,7.1,2.5c6.9-0.5,11.7-7.1,10-13.8c-1-4.2-3.7-7-7.8-8.2
	c-4-1.2-7.4,0-10.2,2.9c-0.6,0.7-1.3,1.3-2,1.9c-2.1,1.6-4.4,1.9-6.8,0.9c-3.2-1.4-4.9-4-4.9-7.6c0-11,0-22.1,0-33.1
	c0-0.5,0-0.9,0-1.4c-0.4,0-0.7-0.1-0.9-0.1c-11.4,0-22.8,0-34.2,0c-0.8,0-1.7,0.2-2.4,0.6c-3.7,1.6-5.3,6.6-1.8,9.5
	c0.6,0.5,1,1,1.5,1.5c1.9,2,3,4.3,3.2,7.1c0.5,8.3-7.6,14.9-15.8,12.8c-7.5-1.9-11.8-10.1-8.5-16.7c0.9-1.8,2.6-3.3,3.9-5
	c0.6-0.7,1.2-1.5,1.5-2.4c1.1-3.6-2-7.4-6-7.4c-11.3,0-22.6,0-34,0c-0.3,0-0.6,0-1.1,0.1c0,0.5,0,1,0,1.5c0,9.7,0,19.4,0,29.2
	c0,1.6,0,3.2,0,4.8c-0.2,4.1-3.9,7.4-8,7.2c-2.2-0.1-3.8-1.2-5.2-2.8c-1.5-1.7-3.1-3.1-5.4-3.7c-6.5-1.7-13.3,3.6-13.4,10.7
	c-0.2,8.4,8.7,13.9,15.3,10.3c1.6-0.9,3-2.3,4.4-3.6c1.6-1.4,3.3-2.2,5.4-1.9c4.1,0.6,6.8,3.8,6.8,8.1c0,11,0,22,0,33
	C48.8,142,48.8,142.5,48.8,143.2z"/>
</svg>
