<?xml version="1.0" encoding="utf-8"?>
<!-- Generator: Adobe Illustrator 26.0.1, SVG Export Plug-In . SVG Version: 6.00 Build 0)  -->
<svg version="1.1" id="visual" xmlns="http://www.w3.org/2000/svg" xmlns:xlink="http://www.w3.org/1999/xlink" x="0px" y="0px"
	 viewBox="0 0 960 540" style="enable-background:new 0 0 960 540;" xml:space="preserve">
<style type="text/css">
	.st0{fill:#FFFFFF;}
	.st1{fill:none;stroke:#001C00;stroke-width:1.25;}
</style>
<rect class="st0" width="960" height="540"/>
<g>
	<path class="st1" d="M702,179.5l9.5,29.4h30.9l-25,18.1l9.6,29.4l-25-18.2l-25,18.2l9.6-29.4l-25-18.1h30.9L702,179.5z"/>
	<path class="st1" d="M672,351.2l0.6,1.9h2.1l-1.7,1.2l0.7,2l-1.7-1.2l-1.7,1.2l0.7-2l-1.7-1.2h2.1L672,351.2z"/>
	<path class="st1" d="M904,412.3l1.1,3.2h3.4l-2.8,2.1l1.1,3.2l-2.8-2l-2.8,2l1.1-3.2l-2.8-2.1h3.4L904,412.3z"/>
	<path class="st1" d="M151,378.4l1.7,5.3h5.5l-4.5,3.2l1.7,5.2l-4.4-3.2l-4.4,3.2l1.7-5.2l-4.5-3.2h5.5L151,378.4z"/>
	<path class="st1" d="M608,22.8l6.8,20.9h21.9L619,56.6l6.8,20.8L608,64.5l-17.8,12.9l6.8-20.8l-17.7-12.9h21.9L608,22.8z"/>
	<path class="st1" d="M256,97.2l8.5,26.1h27.4l-22.2,16.2l8.5,26L256,149.4l-22.2,16.1l8.5-26l-22.2-16.2h27.4L256,97.2z"/>
	<path class="st1" d="M220,16.9l7,21.5h22.6l-18.3,13.3l7,21.5L220,59.9l-18.3,13.3l7-21.5l-18.3-13.3H213L220,16.9z"/>
	<path class="st1" d="M69,263.1l4.2,13.1H87l-11.1,8l4.2,13.1L69,289.2l-11.1,8.1l4.2-13.1l-11.1-8h13.8L69,263.1z"/>
	<path class="st1" d="M105,150.6l2.1,6.5h6.9l-5.6,4l2.1,6.5l-5.5-4l-5.5,4l2.1-6.5l-5.6-4h6.9L105,150.6z"/>
	<path class="st1" d="M338,293.1l4.2,13.1H356l-11.1,8l4.2,13.1l-11.1-8.1l-11.1,8.1l4.2-13.1l-11.1-8h13.8L338,293.1z"/>
	<path class="st1" d="M489,176.2l4.7,14.4h15l-12.2,8.9l4.7,14.3l-12.2-8.9l-12.2,8.9l4.7-14.3l-12.2-8.9h15L489,176.2z"/>
	<path class="st1" d="M316,393.3l4.9,15h15.7l-12.7,9.3l4.9,15l-12.8-9.3l-12.8,9.3l4.9-15l-12.7-9.3h15.7L316,393.3z"/>
	<path class="st1" d="M540,247.7l6.6,20.3h21.2l-17.2,12.5l6.6,20.2L540,288.2l-17.2,12.5l6.6-20.2L512.2,268h21.2L540,247.7z"/>
	<path class="st1" d="M510,458l3.6,11h11.7l-9.5,6.9l3.6,11.1l-9.4-6.9l-9.4,6.9l3.6-11.1l-9.5-6.9h11.7L510,458z"/>
	<path class="st1" d="M614,429.7l6.4,19.6h20.5l-16.6,12l6.3,19.6L614,468.8l-16.6,12.1l6.3-19.6l-16.6-12h20.5L614,429.7z"/>
	<path class="st1" d="M247,303.2l8.3,25.4H282l-21.6,15.7l8.2,25.5L247,354.1l-21.6,15.7l8.2-25.5L212,328.6h26.7L247,303.2z"/>
	<path class="st1" d="M877,110.7l6.6,20.3h21.2l-17.2,12.5l6.6,20.2L877,151.2l-17.2,12.5l6.6-20.2L849.2,131h21.2L877,110.7z"/>
	<path class="st1" d="M884,295.9l7.2,22.2h23.3l-18.8,13.7l7.2,22.2L884,340.3L865.1,354l7.2-22.2l-18.8-13.7h23.3L884,295.9z"/>
	<path class="st1" d="M470,367.3l1.3,4h4.1l-3.3,2.4l1.2,3.9l-3.3-2.4l-3.3,2.4l1.2-3.9l-3.3-2.4h4.1L470,367.3z"/>
	<path class="st1" d="M729,490.1l0.4,1.3h1.4l-1.1,0.8l0.4,1.3l-1.1-0.8l-1.1,0.8l0.4-1.3l-1.1-0.8h1.4L729,490.1z"/>
	<path class="st1" d="M368,43.1l7.8,24.1h25.4l-20.5,14.9l7.8,24.2l-20.5-15l-20.5,15l7.8-24.2l-20.5-14.9h25.4L368,43.1z"/>
	<path class="st1" d="M186,455.6l5.9,18.2h19.2l-15.5,11.3l5.9,18.3L186,492.1l-15.5,11.3l5.9-18.3l-15.5-11.3h19.2L186,455.6z"/>
	<path class="st1" d="M242,219.5l5.7,17.6h18.5L251.3,248l5.7,17.6l-15-10.9l-15,10.9l5.7-17.6l-14.9-10.9h18.5L242,219.5z"/>
	<path class="st1" d="M446,283.1l0.4,1.3h1.4l-1.1,0.8l0.4,1.3l-1.1-0.8l-1.1,0.8l0.4-1.3l-1.1-0.8h1.4L446,283.1z"/>
	<path class="st1" d="M589,181.7l2.8,8.5h8.9l-7.2,5.2l2.7,8.5l-7.2-5.2l-7.2,5.2l2.7-8.5l-7.2-5.2h8.9L589,181.7z"/>
	<path class="st1" d="M752,37.6l6.1,18.9H778l-16.1,11.7l6.2,18.9L752,75.5l-16.1,11.6l6.2-18.9L726,56.5h19.9L752,37.6z"/>
	<path class="st1" d="M64,454.4l1.5,4.6h4.8l-3.9,2.8l1.5,4.5l-3.9-2.8l-3.9,2.8l1.5-4.5l-3.9-2.8h4.8L64,454.4z"/>
	<path class="st1" d="M563,360.4l5.3,16.3h17.1l-13.8,10.1l5.3,16.3L563,393l-13.9,10.1l5.3-16.3l-13.8-10.1h17.1L563,360.4z"/>
	<path class="st1" d="M790,353.6l2.3,7.2h7.6l-6.1,4.4l2.3,7.2L790,368l-6.1,4.4l2.3-7.2l-6.1-4.4h7.6L790,353.6z"/>
	<path class="st1" d="M51,38.2l4.4,13.7h14.5l-11.7,8.4L62.7,74L51,65.6L39.3,74l4.5-13.7l-11.7-8.4h14.5L51,38.2z"/>
	<path class="st1" d="M408,413.4l5.3,16.3h17.1l-13.8,10.1l5.3,16.3L408,446l-13.9,10.1l5.3-16.3l-13.8-10.1h17.1L408,413.4z"/>
	<path class="st1" d="M465,54.2l0.6,1.9h2.1l-1.7,1.2l0.7,2l-1.7-1.2l-1.7,1.2l0.7-2l-1.7-1.2h2.1L465,54.2z"/>
	<path class="st1" d="M822,439.2l4.7,14.4h15l-12.2,8.9l4.7,14.3l-12.2-8.9l-12.2,8.9l4.7-14.3l-12.2-8.9h15L822,439.2z"/>
	<path class="st1" d="M342,152.2l8.3,25.4H377l-21.6,15.7l8.2,25.5L342,203.1l-21.6,15.7l8.2-25.5L307,177.6h26.7L342,152.2z"/>
	<path class="st1" d="M815,219.2l8.3,25.4H850l-21.6,15.7l8.2,25.5L815,270.1l-21.6,15.7l8.2-25.5L780,244.6h26.7L815,219.2z"/>
	<path class="st1" d="M771,145.1l4.2,13.1H789l-11.1,8l4.2,13.1l-11.1-8.1l-11.1,8.1l4.2-13.1l-11.1-8h13.8L771,145.1z"/>
	<path class="st1" d="M879,16.9l7,21.5h22.6l-18.3,13.3l7,21.5L879,59.9l-18.3,13.3l7-21.5l-18.3-13.3H872L879,16.9z"/>
	<path class="st1" d="M910,213l3.8,11.8h12.4l-10,7.2l3.8,11.7l-10-7.2l-10,7.2l3.8-11.7l-10-7.2h12.4L910,213z"/>
	<path class="st1" d="M677,113l3.8,11.8h12.4l-10,7.2l3.8,11.7l-10-7.2l-10,7.2l3.8-11.7l-10-7.2h12.4L677,113z"/>
	<path class="st1" d="M159,274.2l4.4,13.7h14.5l-11.7,8.4l4.5,13.7l-11.7-8.4l-11.7,8.4l4.5-13.7l-11.7-8.4h14.5L159,274.2z"/>
</g>
</svg>
